#!OML:ASF F:\VICON\USERDATA\INSTALL\rory3\rory3.ASF
:FULLY-SPECIFIED
:DEGREES
2173
root 1.11202 17.1703 -1.10938 28.0518 -0.797058 5.03375
lowerback 25.9394 -0.502703 4.44538
upperback 9.45086 0.808246 6.11029
thorax -3.91301 0.352348 3.9105
lowerneck -2.45903 -9.54958 -17.5322
upperneck -14.3627 -10.8814 25.9074
head -0.963827 -5.79176 10.9961
rclavicle -1.90833e-014 3.97569e-015
rhumerus -53.7166 -57.3391 15.3277
rradius 35.4507
rwrist -24.096
rhand -40.2396 -21.2202
rfingers 7.12502
rthumb -13.1987 -50.7824
lclavicle -1.90833e-014 3.97569e-015
lhumerus -41.2533 11.1763 25.5834
lradius 37.344
lwrist 62.9863
lhand -19.7496 35.7911
lfingers 7.12502
lthumb 6.58158 65.6688
rfemur -43.3133 5.11971 5.12501
rtibia 30.9298
rfoot -13.508 -15.011
rtoes -23.2207
lfemur -42.2167 -6.4859 -24.2923
ltibia 26.8116
lfoot -11.4598 1.4886
ltoes -12.8481
2174
root 1.12183 17.1769 -1.10404 28.1001 -0.777653 4.93974
lowerback 25.9236 -0.586504 4.65921
upperback 9.40872 0.757994 6.16362
thorax -3.94631 0.329676 3.86188
lowerneck -2.47014 -9.5477 -17.4847
upperneck -14.2745 -10.898 25.7788
head -0.94922 -5.79381 10.9364
rclavicle 2.06736e-014 2.38542e-015
rhumerus -54.0713 -57.1171 15.6051
rradius 35.4089
rwrist -23.7986
rhand -39.9807 -21.0443
rfingers 7.12502
rthumb -12.9492 -50.6224
lclavicle 2.06736e-014 2.38542e-015
lhumerus -41.3624 10.692 25.7584
lradius 37.2654
lwrist 63.0347
lhand -19.5652 35.7516
lfingers 7.12502
lthumb 6.75953 65.6237
rfemur -43.1998 5.31097 5.1095
rtibia 30.6545
rfoot -13.3635 -15.2104
rtoes -23.3656
lfemur -42.1301 -6.56384 -24.1639
ltibia 26.5884
lfoot -11.4287 1.51565
ltoes -12.6473
2175
root 1.12904 17.1831 -1.10052 28.1552 -0.870937 4.91155
lowerback 25.8964 -0.627666 4.66373
upperback 9.41846 0.70795 6.23545
thorax -3.92078 0.303998 3.95299
lowerneck -2.51405 -9.52915 -17.5634
upperneck -14.2681 -10.8714 25.7486
head -0.943817 -5.77328 10.9398
rclavicle -3.33958e-014 6.36111e-015
rhumerus -54.1103 -56.8822 15.619
rradius 35.3236
rwrist -23.7129
rhand -39.8899 -20.9379
rfingers 7.12502
rthumb -12.8616 -50.5216
lclavicle -3.33958e-014 6.36111e-015
lhumerus -41.5067 10.3391 25.9814
lradius 37.2146
lwrist 62.9245
lhand -19.502 35.835
lfingers 7.12502
lthumb 6.82054 65.7051
rfemur -43.1436 5.54491 4.9822
rtibia 30.3836
rfoot -13.2074 -15.3731
rtoes -23.754
lfemur -42.0775 -6.55103 -24.1564
ltibia 26.3856
lfoot -11.3983 1.48147
ltoes -12.1066
2176
root 1.13641 17.1884 -1.09605 28.2104 -0.972046 4.84544
lowerback 25.8865 -0.659074 4.73645
upperback 9.45253 0.685778 6.31784
thorax -3.87627 0.292398 4.0089
lowerneck -2.57329 -9.57579 -17.7646
upperneck -14.3927 -10.9127 25.8084
head -0.941005 -5.78844 10.9944
rclavicle 2.22639e-014 5.56597e-014
rhumerus -54.2527 -56.7216 15.7501
rradius 35.292
rwrist -23.6759
rhand -39.7592 -21.2818
rfingers 7.12502
rthumb -12.7357 -50.8734
lclavicle 2.22639e-014 5.56597e-014
lhumerus -41.5745 10.191 26.1946
lradius 37.0948
lwrist 62.4628
lhand -19.2842 35.7673
lfingers 7.12502
lthumb 7.03082 65.6305
rfemur -43.0915 5.73118 4.92223
rtibia 30.1284
rfoot -13.1026 -15.4455
rtoes -23.8091
lfemur -42.0157 -6.54162 -24.0974
ltibia 26.1914
lfoot -11.298 1.53854
ltoes -12.0133
2177
root 1.14506 17.1936 -1.08881 28.2815 -1.06763 4.78099
lowerback 25.8691 -0.686576 4.88756
upperback 9.43362 0.686502 6.34065
thorax -3.88613 0.293805 3.94745
lowerneck -2.58223 -9.5984 -17.7702
upperneck -14.4575 -10.9414 25.7196
head -0.959639 -5.80067 10.9641
rclavicle -1.74931e-014 -2.78299e-014
rhumerus -54.7352 -56.4788 16.1117
rradius 35.3022
rwrist -23.6644
rhand -39.4627 -20.8456
rfingers 7.12502
rthumb -12.4498 -50.4548
lclavicle -1.74931e-014 -2.78299e-014
lhumerus -41.561 9.83611 26.3688
lradius 37.0087
lwrist 62.0174
lhand -19.0244 35.9337
lfingers 7.12502
lthumb 7.28159 65.7884
rfemur -43.0571 5.9195 4.85017
rtibia 29.9085
rfoot -13.047 -15.5505
rtoes -23.7423
lfemur -41.943 -6.58365 -24.0152
ltibia 25.9617
lfoot -11.1992 1.59866
ltoes -11.4684
